<?xml version="1.0" encoding="utf-8"?>
<!-- Generator: Adobe Illustrator 16.0.0, SVG Export Plug-In . SVG Version: 6.00 Build 0)  -->
<!DOCTYPE svg PUBLIC "-//W3C//DTD SVG 1.1//EN" "http://www.w3.org/Graphics/SVG/1.1/DTD/svg11.dtd">
<svg version="1.1" id="Layer_1" xmlns="http://www.w3.org/2000/svg" xmlns:xlink="http://www.w3.org/1999/xlink" x="0px" y="0px"
	 width="30px" height="30px" viewBox="0 0 30 30" enable-background="new 0 0 30 30" xml:space="preserve">
<g transform="translate(1 1)">
	<g>
		<path fill="#010101" d="M23.434,2.68H4.566c-1.057,0-1.887,0.83-1.887,1.887v18.868c0,1.056,0.83,1.886,1.887,1.886h8.679h4.528
			h5.66c1.056,0,1.888-0.83,1.888-1.886V4.567C25.321,3.51,24.489,2.68,23.434,2.68z M13.999,24.566v-7.549h-3.018V14h3.018v-2.641
			c0-2.151,1.66-3.963,3.774-4.151h3.396v3.019h-3.02c-0.642,0-1.132,0.491-1.132,1.132V14h3.772v3.018h-3.771v7.549H13.999
			L13.999,24.566z M24.565,23.435c0,0.642-0.49,1.132-1.132,1.132h-5.66v-6.791h3.772v-4.53h-3.772v-1.887
			c0-0.227,0.15-0.377,0.377-0.377h3.773V6.453h-4.189c-2.527,0.227-4.491,2.377-4.491,4.906v1.887h-3.018v4.53h3.019v6.791H4.566
			c-0.642,0-1.132-0.49-1.132-1.132V4.567c0-0.642,0.491-1.132,1.132-1.132h18.868c0.642,0,1.132,0.491,1.132,1.132V23.435
			L24.565,23.435z"/>
	</g>
</g>
</svg>
