<?xml version="1.0" encoding="utf-8"?>
<!-- Generator: Adobe Illustrator 16.0.0, SVG Export Plug-In . SVG Version: 6.00 Build 0)  -->
<!DOCTYPE svg PUBLIC "-//W3C//DTD SVG 1.1//EN" "http://www.w3.org/Graphics/SVG/1.1/DTD/svg11.dtd">
<svg version="1.1" id="Layer_1" xmlns="http://www.w3.org/2000/svg" xmlns:xlink="http://www.w3.org/1999/xlink" x="0px" y="0px"
	 width="30px" height="30px" viewBox="0 0 30 30" enable-background="new 0 0 30 30" xml:space="preserve">
<path fill="#010101" d="M7.095,26.182h15.812c1.806,0,3.274-1.469,3.274-3.274V7.095c0-1.807-1.469-3.276-3.274-3.276H7.095
	c-1.807,0-3.276,1.469-3.276,3.276v15.812C3.819,24.713,5.289,26.182,7.095,26.182z M5.13,7.095c0-1.084,0.881-1.965,1.965-1.965
	h15.812c1.083,0,1.966,0.882,1.966,1.965v15.812c0,1.083-0.883,1.964-1.966,1.964H7.095c-1.084,0-1.965-0.881-1.965-1.964V7.095z"/>
<path fill="#010101" d="M15.001,20.897c3.25,0,5.896-2.646,5.896-5.896c0-3.251-2.646-5.896-5.896-5.896
	c-3.251,0-5.896,2.645-5.896,5.896C9.104,18.251,11.75,20.897,15.001,20.897z M15.001,10.414c2.528,0,4.586,2.058,4.586,4.587
	c0,2.528-2.058,4.586-4.586,4.586c-2.529,0-4.586-2.058-4.586-4.586C10.415,12.472,12.472,10.414,15.001,10.414z"/>
<path fill="#010101" d="M21.553,10.414c1.083,0,1.966-0.882,1.966-1.966c0-1.083-0.883-1.965-1.966-1.965
	c-1.084,0-1.966,0.881-1.966,1.965C19.587,9.532,20.467,10.414,21.553,10.414z M21.553,7.793c0.36,0,0.655,0.294,0.655,0.655
	c0,0.361-0.295,0.656-0.655,0.656s-0.656-0.294-0.656-0.656C20.896,8.088,21.191,7.793,21.553,7.793z"/>
</svg>
