<?xml version="1.0" encoding="utf-8"?>
<!-- Generator: Adobe Illustrator 16.0.0, SVG Export Plug-In . SVG Version: 6.00 Build 0)  -->
<!DOCTYPE svg PUBLIC "-//W3C//DTD SVG 1.1//EN" "http://www.w3.org/Graphics/SVG/1.1/DTD/svg11.dtd">
<svg version="1.1" id="Layer_1" xmlns="http://www.w3.org/2000/svg" xmlns:xlink="http://www.w3.org/1999/xlink" x="0px" y="0px"
	 width="30px" height="30px" viewBox="0 0 30 30" enable-background="new 0 0 30 30" xml:space="preserve">
<path fill="#010101" d="M29.784,29.165l-8.726-8.791c2.225-2.161,3.604-5.141,3.604-8.429C24.663,5.358,19.131,0,12.332,0
	C5.531,0,0,5.358,0,11.945c0,6.587,5.531,11.945,12.332,11.945c2.984,0,5.723-1.033,7.859-2.749l8.747,8.813
	c0.114,0.117,0.269,0.176,0.423,0.176c0.147,0,0.293-0.055,0.406-0.159C30.001,29.752,30.009,29.392,29.784,29.165z M12.332,22.753
	c-6.152,0-11.158-4.848-11.158-10.808c0-5.959,5.006-10.809,11.158-10.809c6.151,0,11.157,4.849,11.157,10.809
	C23.488,17.905,18.482,22.753,12.332,22.753z"/>
</svg>
