<?xml version="1.0" encoding="utf-8"?>
<!-- Generator: Adobe Illustrator 16.0.0, SVG Export Plug-In . SVG Version: 6.00 Build 0)  -->
<!DOCTYPE svg PUBLIC "-//W3C//DTD SVG 1.1//EN" "http://www.w3.org/Graphics/SVG/1.1/DTD/svg11.dtd">
<svg version="1.1" id="Layer_1" xmlns="http://www.w3.org/2000/svg" xmlns:xlink="http://www.w3.org/1999/xlink" x="0px" y="0px"
	 width="30px" height="30px" viewBox="0 0 30 30" enable-background="new 0 0 30 30" xml:space="preserve">
<path fill="#010101" d="M6.803,22.418h15.813c1.806,0,3.274-1.041,3.274-2.32V8.893c0-1.28-1.469-2.321-3.274-2.321H6.803
	c-1.807,0-3.276,1.041-3.276,2.321v11.205C3.527,21.377,4.996,22.418,6.803,22.418z M4.838,8.893c0-0.769,0.881-1.393,1.965-1.393
	h15.813c1.083,0,1.966,0.625,1.966,1.393v11.205c0,0.768-0.883,1.392-1.966,1.392H6.803c-1.084,0-1.965-0.624-1.965-1.392V8.893z"/>
<polygon fill="#231F20" points="12.708,10.974 12.708,18.016 18.208,14.495 "/>
</svg>
